<svg xmlns="http://www.w3.org/2000/svg" viewBox="0 0 40 40" width="96%" height="96%">
        <!-- Kepala bulat besar -->
        <ellipse cx="20" cy="22" rx="16" ry="15" fill="#f5922a"/>
        <!-- Telinga lancip kiri -->
        <polygon points="7,12 3,1 15,10" fill="#f5922a"/>
        <polygon points="7,12 4,2 14,10" fill="#c05a00" opacity="0.55"/>
        <!-- Telinga lancip kanan -->
        <polygon points="33,12 37,1 25,10" fill="#f5922a"/>
        <polygon points="33,12 36,2 26,10" fill="#c05a00" opacity="0.55"/>
        <!-- Dahi stripe -->
        <path d="M17 11 Q20 9 23 11" stroke="#c05a00" stroke-width="1.2" fill="none" opacity="0.5"/>
        <!-- Alis tebal -->
        <path d="M9 16 Q13 13.5 17 16" stroke="#c05a00" stroke-width="2" fill="none" stroke-linecap="round"/>
        <path d="M23 16 Q27 13.5 31 16" stroke="#c05a00" stroke-width="2" fill="none" stroke-linecap="round"/>
        <!-- Mata besar -->
        <ellipse cx="14" cy="21" rx="4" ry="4.5" fill="white"/>
        <ellipse cx="26" cy="21" rx="4" ry="4.5" fill="white"/>
        <ellipse cx="14.5" cy="21.5" rx="2.8" ry="3.2" fill="#2a7a2a"/>
        <ellipse cx="26.5" cy="21.5" rx="2.8" ry="3.2" fill="#2a7a2a"/>
        <circle cx="15" cy="21" r="1.4" fill="black"/>
        <circle cx="27" cy="21" r="1.4" fill="black"/>
        <!-- Kilap mata -->
        <circle cx="13" cy="19.5" r="1" fill="white"/>
        <circle cx="25" cy="19.5" r="1" fill="white"/>
        <!-- Hidung -->
        <ellipse cx="20" cy="27" rx="2.5" ry="1.6" fill="#e03030"/>
        <!-- Kumis -->
        <line x1="17" y1="26.5" x2="4" y2="24" stroke="#c05a00" stroke-width="1" opacity="0.75"/>
        <line x1="17" y1="27.8" x2="4" y2="30" stroke="#c05a00" stroke-width="1" opacity="0.75"/>
        <line x1="23" y1="26.5" x2="36" y2="24" stroke="#c05a00" stroke-width="1" opacity="0.75"/>
        <line x1="23" y1="27.8" x2="36" y2="30" stroke="#c05a00" stroke-width="1" opacity="0.75"/>
        <!-- Mulut senyum -->
        <path d="M17 29.5 Q20 33 23 29.5" stroke="#c05a00" stroke-width="1.2" fill="none" stroke-linecap="round"/>
      </svg>